<svg width="114" height="123" viewBox="0 0 114 123" fill="none" xmlns="http://www.w3.org/2000/svg">
<path d="M5.7294 117H0.615767L6.37713 99.5455H12.8544L18.6158 117H13.5021L9.68395 104.352H9.54759L5.7294 117ZM4.77486 110.114H14.3885V113.659H4.77486V110.114ZM27.7884 121.909V114.852H27.7202C27.5384 115.295 27.277 115.693 26.9361 116.045C26.6009 116.392 26.1918 116.668 25.7088 116.872C25.2315 117.071 24.6861 117.17 24.0724 117.17C23.1406 117.17 22.2827 116.926 21.4986 116.438C20.7202 115.949 20.0952 115.207 19.6236 114.213C19.1577 113.219 18.9247 111.966 18.9247 110.455C18.9247 108.875 19.169 107.591 19.6577 106.602C20.152 105.614 20.7884 104.889 21.5668 104.429C22.3509 103.969 23.1747 103.739 24.0384 103.739C24.6861 103.739 25.2543 103.852 25.7429 104.08C26.2315 104.301 26.6406 104.599 26.9702 104.974C27.2997 105.344 27.5497 105.75 27.7202 106.193H27.8224V103.909H32.4929V121.909H27.7884ZM25.8111 113.557C26.2429 113.557 26.6122 113.432 26.919 113.182C27.2315 112.926 27.4702 112.568 27.6349 112.108C27.8054 111.642 27.8906 111.091 27.8906 110.455C27.8906 109.807 27.8054 109.253 27.6349 108.793C27.4702 108.327 27.2315 107.972 26.919 107.727C26.6122 107.477 26.2429 107.352 25.8111 107.352C25.3793 107.352 25.0099 107.477 24.7031 107.727C24.402 107.972 24.169 108.327 24.0043 108.793C23.8452 109.253 23.7656 109.807 23.7656 110.455C23.7656 111.102 23.8452 111.659 24.0043 112.125C24.169 112.585 24.402 112.94 24.7031 113.19C25.0099 113.435 25.3793 113.557 25.8111 113.557ZM43.3615 111.273V103.909H48.0661V117H43.6001V114.511H43.4638C43.1797 115.347 42.6825 116 41.9723 116.472C41.2621 116.938 40.4183 117.17 39.4411 117.17C38.5263 117.17 37.7251 116.96 37.0376 116.54C36.3558 116.119 35.8246 115.54 35.4439 114.801C35.0689 114.063 34.8786 113.216 34.8729 112.261V103.909H39.5774V111.273C39.5831 111.92 39.7479 112.429 40.0717 112.798C40.4013 113.168 40.8615 113.352 41.4524 113.352C41.8445 113.352 42.1825 113.27 42.4666 113.105C42.7564 112.935 42.978 112.696 43.1314 112.389C43.2905 112.077 43.3672 111.705 43.3615 111.273ZM54.1065 117.205C53.2713 117.205 52.5327 117.068 51.8906 116.795C51.2543 116.517 50.7543 116.097 50.3906 115.534C50.027 114.972 49.8452 114.256 49.8452 113.386C49.8452 112.67 49.9673 112.06 50.2116 111.554C50.456 111.043 50.7969 110.625 51.2344 110.301C51.6719 109.977 52.1804 109.73 52.7599 109.56C53.3452 109.389 53.9759 109.278 54.652 109.227C55.3849 109.17 55.973 109.102 56.4162 109.023C56.8651 108.938 57.1889 108.821 57.3878 108.673C57.5866 108.52 57.6861 108.318 57.6861 108.068V108.034C57.6861 107.693 57.5554 107.432 57.294 107.25C57.0327 107.068 56.6974 106.977 56.2884 106.977C55.8395 106.977 55.473 107.077 55.1889 107.276C54.9105 107.469 54.7429 107.767 54.6861 108.17H50.3565C50.4134 107.375 50.6662 106.642 51.1151 105.972C51.5696 105.295 52.2315 104.756 53.1009 104.352C53.9702 103.943 55.0554 103.739 56.3565 103.739C57.294 103.739 58.1349 103.849 58.8793 104.071C59.6236 104.287 60.2571 104.591 60.7798 104.983C61.3026 105.369 61.7003 105.824 61.973 106.347C62.2514 106.864 62.3906 107.426 62.3906 108.034V117H57.9929V115.159H57.8906C57.6293 115.648 57.3111 116.043 56.9361 116.344C56.5668 116.645 56.1435 116.864 55.6662 117C55.1946 117.136 54.6747 117.205 54.1065 117.205ZM55.6406 114.239C55.9986 114.239 56.3338 114.165 56.6463 114.017C56.9645 113.869 57.223 113.656 57.4219 113.378C57.6207 113.099 57.7202 112.761 57.7202 112.364V111.273C57.5952 111.324 57.4616 111.372 57.3196 111.418C57.1832 111.463 57.0355 111.506 56.8764 111.545C56.723 111.585 56.5582 111.622 56.3821 111.656C56.2116 111.69 56.0327 111.722 55.8452 111.75C55.4815 111.807 55.1832 111.901 54.9503 112.031C54.723 112.156 54.5526 112.313 54.4389 112.5C54.331 112.682 54.277 112.886 54.277 113.114C54.277 113.477 54.4048 113.756 54.6605 113.949C54.9162 114.142 55.2429 114.239 55.6406 114.239ZM66.9652 108.818V117H65.4482V103.909H66.9226V105.963H67.0589C67.3658 105.293 67.843 104.756 68.4908 104.352C69.1442 103.943 69.951 103.739 70.9112 103.739C71.7919 103.739 72.5646 103.923 73.2294 104.293C73.8999 104.656 74.4197 105.193 74.7891 105.903C75.1641 106.614 75.3516 107.486 75.3516 108.52V117H73.8345V108.614C73.8345 107.54 73.5334 106.69 72.9311 106.065C72.3345 105.44 71.5334 105.128 70.5277 105.128C69.8402 105.128 69.2294 105.276 68.6953 105.571C68.1612 105.866 67.7379 106.293 67.4254 106.849C67.1186 107.401 66.9652 108.057 66.9652 108.818ZM84.4347 117.273C83.304 117.273 82.304 116.986 81.4347 116.412C80.571 115.838 79.8949 115.045 79.4062 114.034C78.9176 113.017 78.6733 111.844 78.6733 110.514C78.6733 109.173 78.9176 107.994 79.4062 106.977C79.8949 105.955 80.571 105.159 81.4347 104.591C82.304 104.017 83.304 103.73 84.4347 103.73C85.5653 103.73 86.5625 104.017 87.4261 104.591C88.2898 105.165 88.9659 105.96 89.4545 106.977C89.9489 107.994 90.196 109.173 90.196 110.514C90.196 111.844 89.9517 113.017 89.4631 114.034C88.9744 115.045 88.2955 115.838 87.4261 116.412C86.5625 116.986 85.5653 117.273 84.4347 117.273ZM84.4347 115.884C85.3438 115.884 86.1136 115.639 86.7443 115.151C87.375 114.662 87.8523 114.011 88.1761 113.199C88.5057 112.386 88.6705 111.491 88.6705 110.514C88.6705 109.537 88.5057 108.639 88.1761 107.821C87.8523 107.003 87.375 106.347 86.7443 105.852C86.1136 105.358 85.3438 105.111 84.4347 105.111C83.5313 105.111 82.7614 105.358 82.125 105.852C81.4943 106.347 81.0142 107.003 80.6847 107.821C80.3608 108.639 80.1989 109.537 80.1989 110.514C80.1989 111.491 80.3608 112.386 80.6847 113.199C81.0142 114.011 81.4943 114.662 82.125 115.151C82.7557 115.639 83.5256 115.884 84.4347 115.884ZM98.6825 103.909V105.23H92.4354V103.909H98.6825ZM94.3871 100.773H95.9126V113.582C95.9126 114.128 96.0064 114.557 96.1939 114.869C96.3814 115.176 96.6257 115.395 96.9268 115.526C97.228 115.651 97.549 115.713 97.8899 115.713C98.0888 115.713 98.2592 115.702 98.4013 115.679C98.5433 115.651 98.6683 115.622 98.7763 115.594L99.1001 116.966C98.9524 117.023 98.7706 117.074 98.5547 117.119C98.3388 117.17 98.0717 117.196 97.7536 117.196C97.1967 117.196 96.6598 117.074 96.1428 116.83C95.6314 116.585 95.2109 116.222 94.8814 115.739C94.5518 115.256 94.3871 114.656 94.3871 113.94V100.773ZM107.28 117.273C106.058 117.273 105.001 116.989 104.109 116.42C103.217 115.847 102.527 115.054 102.038 114.043C101.555 113.026 101.314 111.855 101.314 110.531C101.314 109.213 101.555 108.043 102.038 107.02C102.527 105.991 103.2 105.188 104.058 104.608C104.922 104.023 105.919 103.73 107.05 103.73C107.76 103.73 108.445 103.861 109.104 104.122C109.763 104.378 110.354 104.773 110.876 105.307C111.405 105.835 111.822 106.503 112.129 107.31C112.436 108.111 112.589 109.06 112.589 110.156V110.906H102.362V109.568H111.038C111.038 108.727 110.868 107.972 110.527 107.301C110.192 106.625 109.723 106.091 109.121 105.699C108.524 105.307 107.834 105.111 107.05 105.111C106.22 105.111 105.49 105.332 104.859 105.776C104.229 106.219 103.734 106.804 103.376 107.531C103.024 108.259 102.845 109.054 102.839 109.918V110.719C102.839 111.759 103.018 112.668 103.376 113.446C103.74 114.219 104.254 114.818 104.919 115.244C105.584 115.67 106.371 115.884 107.28 115.884C107.899 115.884 108.442 115.787 108.908 115.594C109.379 115.401 109.774 115.142 110.092 114.818C110.416 114.489 110.661 114.128 110.825 113.736L112.266 114.205C112.067 114.756 111.74 115.264 111.286 115.73C110.837 116.196 110.274 116.571 109.598 116.855C108.928 117.134 108.155 117.273 107.28 117.273Z" fill="white"/>
<path d="M11 61.7315C11 47.6584 30.2518 36.25 54 36.25C77.7482 36.25 97 47.6584 97 61.7315C97 75.8045 77.7482 87.213 54 87.213C40.939 87.213 29.2381 83.7622 21.3519 78.3152" stroke="#39B6C6" stroke-width="4" stroke-linecap="round"/>
<path d="M77.8889 61.7315C77.8889 53.8154 67.1935 47.3982 54 47.3982C40.8065 47.3982 30.1111 53.8154 30.1111 61.7315C30.1111 69.6476 40.8065 76.0648 54 76.0648C60.5108 76.0648 66.4133 74.502 70.7222 71.9675" stroke="#39B6C6" stroke-width="4" stroke-linecap="round"/>
<path d="M70.0018 42.1325C70.0018 50.5217 62.5192 58.1482 53.2891 58.1482C44.0589 58.1482 35.4794 52.047 36.5765 40.6072C37.6736 29.1675 44.9328 19.253 47.9715 4C66.2034 20.0157 70.0018 33.7434 70.0018 42.1325Z" fill="#152D41" stroke="#39B6C6" stroke-width="4"/>
<path d="M63.5152 38.4872C64.1599 44.9334 60.2921 50.735 53.8459 52.0243" stroke="#39B6C6" stroke-width="4" stroke-linecap="round"/>
</svg>
