<svg width="385" height="96" viewBox="0 0 385 96" fill="none" xmlns="http://www.w3.org/2000/svg">
<path d="M359.213 95.9091C357.416 95.9091 359.213 95.9091 357.416 95.9091C355.775 95.9091 357.416 95.9091 355.775 95.9091V93.0962C359.148 93.0962 355.165 93.0962 359.42 93.0962C360.944 93.0962 362.354 92.3749 363.3 91.4132C364.245 90.4515 365.047 89.0411 365.704 87.1818L367.387 82.5657L354.042 44.802H357.191L368.733 78.2862H368.974L380.897 44.802H384.046L368.277 88.3358C367.684 90.0028 366.938 91.3972 366.041 92.5192C365.143 93.6411 364.117 94.4826 362.963 95.0436C361.825 95.6206 360.575 95.9091 359.213 95.9091Z" fill="white"/>
<path d="M342.468 34.8812V82.8372H339.647V34.8812H342.468Z" fill="white"/>
<path d="M320.919 82.8317V44.0532H323.828L323.828 82.8317H320.919ZM322.385 37.8438C321.744 37.8438 321.183 37.6194 320.702 37.1706C320.238 36.7218 320.005 36.1769 320.005 35.5358C320.005 34.8946 320.238 34.3497 320.702 33.9009C321.167 33.4521 321.728 33.2277 322.385 33.2277C323.026 33.2277 323.579 33.4521 324.044 33.9009C324.525 34.3497 324.765 34.8946 324.765 35.5358C324.765 36.1769 324.533 36.7218 324.068 37.1706C323.603 37.6194 323.042 37.8438 322.385 37.8438Z" fill="white"/>
<path d="M279.893 74.3138L280.014 58.9529H282.199L294.684 44.802H313.503L293.369 65.6967H288.634L279.893 74.3138ZM264.838 82.8372V34.8812H281.592V82.8372H264.838ZM293.612 82.8372L282.928 68.6003L293.854 59.4212L312.794 82.8372H293.612Z" fill="white"/>
<path d="M222.408 56.2087V82.8372H205.308V35.4976H221.541V44.497H222.036C223.069 41.4972 224.886 39.1446 227.489 37.4392C230.112 35.7339 233.168 34.8812 236.658 34.8812C240.025 34.8812 242.947 35.6517 245.426 37.1927C247.925 38.7131 249.856 40.8089 251.219 43.48C252.602 46.151 253.284 49.2022 253.263 52.6335V82.8372H236.163V56.2087C236.183 53.8663 235.585 52.0274 234.366 50.6919C233.168 49.3563 231.495 48.6886 229.347 48.6886C227.943 48.6886 226.714 48.9968 225.661 49.6132C224.628 50.209 223.833 51.072 223.276 52.2021C222.718 53.3116 222.429 54.6471 222.408 56.2087Z" fill="white"/>
<path d="M163.929 82.8372C160.925 82.8372 158.267 82.3516 155.957 81.3803C153.668 80.3888 151.869 78.8915 150.561 76.8883C149.252 74.885 148.598 72.3355 148.598 69.2396C148.598 66.69 149.038 64.5148 149.917 62.7139C150.796 60.8928 152.022 59.4055 153.596 58.2522C155.17 57.0988 157 56.2186 159.085 55.6115C161.19 55.0045 163.459 54.6099 165.892 54.4278C168.529 54.2255 170.645 53.9827 172.239 53.6994C173.854 53.3959 175.019 52.981 175.735 52.4549C176.45 51.9086 176.808 51.1903 176.808 50.3V50.1785C176.808 48.9645 176.338 48.0337 175.397 47.3862C174.457 46.7387 173.251 46.4149 171.779 46.4149C170.164 46.4149 168.846 46.769 167.824 47.4772C166.822 48.1652 166.219 49.2275 166.015 50.6642H150.438C150.642 47.8313 151.552 45.2211 153.167 42.8334C154.802 40.4255 157.184 38.5032 160.311 37.0665C163.439 35.6096 167.343 34.8812 172.024 34.8812C175.397 34.8812 178.423 35.2757 181.1 36.0649C183.778 36.8338 186.058 37.9164 187.938 39.3125C189.819 40.6885 191.25 42.3073 192.231 44.1689C193.233 46.0102 193.733 48.0134 193.733 50.1785V82.1088H177.912V75.5528H177.544C176.603 77.2929 175.459 78.6993 174.109 79.7717C172.781 80.8441 171.258 81.6232 169.541 82.1088C167.844 82.5944 165.974 82.8372 163.929 82.8372ZM169.449 72.2748C170.737 72.2748 171.943 72.0117 173.067 71.4856C174.212 70.9595 175.142 70.2007 175.857 69.2092C176.573 68.2177 176.93 67.0138 176.93 65.5973V61.7123C176.481 61.8944 176 62.0664 175.489 62.2283C174.999 62.3901 174.467 62.5419 173.895 62.6835C173.343 62.8252 172.75 62.9567 172.116 63.0781C171.503 63.1995 170.859 63.3108 170.185 63.412C168.876 63.6143 167.803 63.9482 166.965 64.4136C166.147 64.8588 165.534 65.4152 165.125 66.083C164.737 66.7305 164.543 67.4589 164.543 68.2683C164.543 69.5633 165.003 70.5548 165.923 71.2428C166.842 71.9308 168.018 72.2748 169.449 72.2748Z" fill="white"/>
<path d="M136.546 34.6996V51.0304H112.297L112.297 34.6996H136.546ZM112.002 20H128.605V66.7212C128.605 67.3768 128.716 67.93 128.936 68.3807C129.157 68.8109 129.498 69.1387 129.959 69.3641C130.42 69.569 131.12 69.604 131.842 69.604C132.343 69.604 131.842 69.604 134.322 69.604C137.024 69.604 134.322 69.604 137.024 69.604L136.993 82.5784C134.2 82.5784 136.993 82.5784 134.2 82.5784C130.383 82.5784 134.234 82.5784 129.361 82.5784C125.395 82.5784 122.319 82.3838 119.732 81.3799C117.145 80.3555 115.2 78.7473 113.897 76.5551C112.593 74.363 111.962 71.6177 112.002 68.3192L112.002 20Z" fill="white"/>
<path d="M2 61.7315C2 47.6584 21.2518 36.25 45 36.25C68.7482 36.25 88 47.6584 88 61.7315C88 75.8045 68.7482 87.213 45 87.213C31.939 87.213 20.2381 83.7622 12.3519 78.3152" stroke="#39B6C6" stroke-width="4" stroke-linecap="round"/>
<path d="M68.8889 61.7315C68.8889 53.8154 58.1935 47.3981 45 47.3981C31.8065 47.3981 21.1111 53.8154 21.1111 61.7315C21.1111 69.6475 31.8065 76.0648 45 76.0648C51.5108 76.0648 57.4133 74.502 61.7222 71.9675" stroke="#39B6C6" stroke-width="4" stroke-linecap="round"/>
<path d="M61.0018 42.1325C61.0018 50.5216 53.5192 58.1481 44.2891 58.1481C35.0589 58.1481 26.4794 52.0469 27.5765 40.6072C28.6736 29.1674 35.9328 19.253 38.9715 4C57.2034 20.0156 61.0018 33.7433 61.0018 42.1325Z" fill="#152D41" stroke="#39B6C6" stroke-width="4"/>
<path d="M54.5152 38.4872C55.1599 44.9335 51.2921 50.735 44.8459 52.0243" stroke="#39B6C6" stroke-width="4" stroke-linecap="round"/>
</svg>
