<svg width="165" height="144" viewBox="0 0 165 144" fill="none" xmlns="http://www.w3.org/2000/svg">
<path d="M149.512 143.909C148.425 143.909 149.512 143.909 148.425 143.909C147.433 143.909 148.425 143.909 147.433 143.909V142.208C149.473 142.208 147.064 142.208 149.637 142.208C150.559 142.208 151.412 141.772 151.984 141.19C152.556 140.608 153.04 139.755 153.438 138.631L154.456 135.839L146.385 113H148.289L155.27 133.251H155.415L162.626 113H164.531L154.994 139.329C154.635 140.337 154.184 141.18 153.641 141.859C153.099 142.537 152.478 143.046 151.78 143.386C151.092 143.735 150.336 143.909 149.512 143.909Z" fill="white"/>
<path d="M139.385 107V136.003H137.679V107H139.385Z" fill="white"/>
<path d="M126.352 136V112.547H128.111L128.111 136H126.352ZM127.239 108.792C126.851 108.792 126.512 108.656 126.221 108.385C125.94 108.113 125.8 107.784 125.8 107.396C125.8 107.008 125.94 106.679 126.221 106.407C126.502 106.136 126.842 106 127.239 106C127.627 106 127.961 106.136 128.242 106.407C128.533 106.679 128.679 107.008 128.679 107.396C128.679 107.784 128.538 108.113 128.257 108.385C127.976 108.656 127.636 108.792 127.239 108.792Z" fill="white"/>
<path d="M101.54 130.848L101.613 121.558H102.935L110.486 113H121.867L109.69 125.637H106.826L101.54 130.848ZM92.4349 136.003V107H102.568V136.003H92.4349ZM109.837 136.003L103.375 127.393L109.984 121.842L121.438 136.003H109.837Z" fill="white"/>
<path d="M66.7738 119.899V136.003H56.4316V107.373H66.2492V112.816H66.5489C67.1735 111.001 68.2726 109.578 69.8465 108.547C71.4328 107.516 73.2814 107 75.3923 107C77.4282 107 79.1956 107.466 80.6945 108.398C82.2059 109.318 83.3737 110.585 84.1981 112.2C85.035 113.816 85.4472 115.661 85.4347 117.736V136.003H75.0925V119.899C75.105 118.482 74.7428 117.37 74.0058 116.562C73.2814 115.754 72.2696 115.351 70.9706 115.351C70.1212 115.351 69.3781 115.537 68.741 115.91C68.1165 116.27 67.6356 116.792 67.2984 117.476C66.9611 118.147 66.7863 118.954 66.7738 119.899Z" fill="white"/>
<path d="M31.4065 136.003C29.5891 136.003 27.9819 135.71 26.5849 135.122C25.2003 134.523 24.1123 133.617 23.3211 132.405C22.5299 131.194 22.1343 129.652 22.1343 127.78C22.1343 126.238 22.4001 124.922 22.9317 123.833C23.4633 122.732 24.2051 121.832 25.157 121.135C26.109 120.437 27.2154 119.905 28.4765 119.538C29.7498 119.17 31.1221 118.932 32.5933 118.822C34.1881 118.699 35.4677 118.552 36.432 118.381C37.4087 118.198 38.1133 117.947 38.546 117.628C38.9787 117.298 39.1951 116.864 39.1951 116.325V116.252C39.1951 115.517 38.9107 114.955 38.342 114.563C37.7734 114.171 37.0439 113.975 36.1538 113.975C35.1771 113.975 34.3797 114.19 33.7616 114.618C33.1558 115.034 32.7911 115.677 32.6675 116.545H23.2469C23.3706 114.832 23.9207 113.253 24.8974 111.809C25.8864 110.353 27.3267 109.191 29.2182 108.322C31.1097 107.441 33.4711 107 36.3022 107C38.342 107 40.1718 107.239 41.7913 107.716C43.4108 108.181 44.7893 108.836 45.9267 109.68C47.0641 110.512 47.9295 111.491 48.5229 112.617C49.1287 113.731 49.4316 114.942 49.4316 116.252V135.563H39.8627V131.598H39.6402C39.0715 132.65 38.3791 133.501 37.5632 134.149C36.7596 134.798 35.8386 135.269 34.8001 135.563C33.774 135.857 32.6427 136.003 31.4065 136.003ZM34.7444 129.615C35.5233 129.615 36.2527 129.456 36.9327 129.138C37.625 128.82 38.1875 128.361 38.6202 127.761C39.0529 127.162 39.2693 126.433 39.2693 125.577V123.227C38.9973 123.337 38.7068 123.441 38.3977 123.539C38.101 123.637 37.7795 123.729 37.4334 123.815C37.0996 123.9 36.7411 123.98 36.3578 124.053C35.9869 124.127 35.5975 124.194 35.1895 124.255C34.3983 124.378 33.7492 124.579 33.2423 124.861C32.7478 125.13 32.3769 125.467 32.1297 125.871C31.8948 126.262 31.7773 126.703 31.7773 127.192C31.7773 127.975 32.0555 128.575 32.6118 128.991C33.1682 129.407 33.879 129.615 34.7444 129.615Z" fill="white"/>
<path d="M14.8454 106.89V116.767H0.179545L0.179545 106.89H14.8454ZM0.00108606 98H10.0428V126.257C10.0428 126.653 10.1095 126.988 10.2429 127.26C10.3763 127.52 10.5825 127.719 10.8614 127.855C11.1404 127.979 11.5634 128 12 128C12.3032 128 12 128 13.5 128C15.1343 128 13.5 128 15.1343 128L15.1157 135.847C13.4264 135.847 15.1157 135.847 13.4264 135.847C11.118 135.847 13.447 135.847 10.5 135.847C8.10092 135.847 6.24078 135.729 4.67631 135.122C3.11184 134.502 1.93545 133.53 1.14715 132.204C0.358853 130.878 -0.0231693 129.218 0.00108606 127.223L0.00108606 98Z" fill="white"/>
<path d="M34 61.7315C34 47.6584 53.2518 36.25 77 36.25C100.748 36.25 120 47.6584 120 61.7315C120 75.8045 100.748 87.213 77 87.213C63.939 87.213 52.2381 83.7622 44.3519 78.3152" stroke="#39B6C6" stroke-width="4" stroke-linecap="round"/>
<path d="M100.889 61.7315C100.889 53.8154 90.1935 47.3981 77 47.3981C63.8065 47.3981 53.1111 53.8154 53.1111 61.7315C53.1111 69.6475 63.8065 76.0648 77 76.0648C83.5108 76.0648 89.4133 74.502 93.7222 71.9675" stroke="#39B6C6" stroke-width="4" stroke-linecap="round"/>
<path d="M93.0018 42.1325C93.0018 50.5216 85.5192 58.1481 76.2891 58.1481C67.0589 58.1481 58.4794 52.0469 59.5765 40.6072C60.6736 29.1674 67.9328 19.253 70.9715 4C89.2034 20.0156 93.0018 33.7433 93.0018 42.1325Z" fill="#152D41" stroke="#39B6C6" stroke-width="4"/>
<path d="M86.5152 38.4872C87.1599 44.9334 83.2921 50.735 76.8459 52.0242" stroke="#39B6C6" stroke-width="4" stroke-linecap="round"/>
</svg>
