<svg width="413" height="90" viewBox="0 0 413 90" fill="none" xmlns="http://www.w3.org/2000/svg">
<path d="M397.998 74.0307C394.688 74.0307 391.825 73.261 389.408 71.7215C386.991 70.1667 385.121 68.0192 383.797 65.279C382.488 62.5234 381.834 59.3521 381.834 55.7652C381.834 52.1937 382.488 49.0224 383.797 46.2514C385.121 43.465 386.945 41.2867 389.269 39.7165C391.609 38.1308 394.311 37.338 397.375 37.338C399.299 37.338 401.154 37.6921 402.94 38.4002C404.726 39.093 406.327 40.1629 407.743 41.61C409.175 43.0417 410.306 44.8505 411.137 47.0365C411.969 49.2072 412.384 51.778 412.384 54.7492V56.7812H384.674V53.1558H408.182C408.182 50.8774 407.72 48.83 406.796 47.0134C405.888 45.1815 404.618 43.7344 402.986 42.6722C401.37 41.61 399.499 41.0789 397.375 41.0789C395.127 41.0789 393.149 41.6793 391.44 42.88C389.731 44.0808 388.392 45.6664 387.422 47.6369C386.468 49.6074 385.983 51.7626 385.967 54.1026V56.2732C385.967 59.0904 386.452 61.5535 387.422 63.6625C388.407 65.7562 389.801 67.3803 391.602 68.5349C393.403 69.6895 395.535 70.2668 397.998 70.2668C399.676 70.2668 401.146 70.0051 402.409 69.4816C403.686 68.9582 404.756 68.2578 405.618 67.3803C406.496 66.4874 407.158 65.5099 407.604 64.4477L411.507 65.7177C410.968 67.211 410.083 68.5888 408.851 69.8511C407.635 71.1135 406.111 72.1295 404.279 72.8992C402.463 73.6535 400.369 74.0307 397.998 74.0307Z" fill="white"/>
<path d="M374.704 37.8229V41.4021H357.778V37.8229H374.704ZM363.066 29.3252H367.2V64.032C367.2 65.5098 367.454 66.6721 367.962 67.5188C368.47 68.3501 369.132 68.9428 369.948 69.2969C370.763 69.6356 371.633 69.8049 372.557 69.8049C373.096 69.8049 373.557 69.7741 373.942 69.7125C374.327 69.6356 374.666 69.5586 374.958 69.4816L375.836 73.1994C375.436 73.3533 374.943 73.4919 374.358 73.615C373.773 73.7536 373.049 73.8228 372.187 73.8228C370.679 73.8228 369.224 73.4919 367.823 72.8299C366.438 72.1679 365.298 71.1827 364.406 69.8742C363.513 68.5656 363.066 66.9415 363.066 65.0018V29.3252Z" fill="white"/>
<path d="M336.101 74.0307C333.037 74.0307 330.328 73.2533 327.973 71.6984C325.633 70.1436 323.801 67.9961 322.477 65.2559C321.153 62.5003 320.491 59.3213 320.491 55.719C320.491 52.0859 321.153 48.8916 322.477 46.136C323.801 43.365 325.633 41.2097 327.973 39.6703C330.328 38.1154 333.037 37.338 336.101 37.338C339.164 37.338 341.866 38.1154 344.206 39.6703C346.546 41.2251 348.378 43.3803 349.702 46.136C351.041 48.8916 351.711 52.0859 351.711 55.719C351.711 59.3213 351.049 62.5003 349.725 65.2559C348.401 67.9961 346.561 70.1436 344.206 71.6984C341.866 73.2533 339.164 74.0307 336.101 74.0307ZM336.101 70.2668C338.564 70.2668 340.65 69.6048 342.359 68.2809C344.068 66.957 345.361 65.1943 346.238 62.9929C347.131 60.7915 347.577 58.3668 347.577 55.719C347.577 53.0712 347.131 50.6388 346.238 48.422C345.361 46.2052 344.068 44.4272 342.359 43.0879C340.65 41.7485 338.564 41.0789 336.101 41.0789C333.653 41.0789 331.567 41.7485 329.843 43.0879C328.134 44.4272 326.833 46.2052 325.941 48.422C325.063 50.6388 324.624 53.0712 324.624 55.719C324.624 58.3668 325.063 60.7915 325.941 62.9929C326.833 65.1943 328.134 66.957 329.843 68.2809C331.552 69.6048 333.638 70.2668 336.101 70.2668Z" fill="white"/>
<path d="M288.769 51.1237V73.2918H284.658V37.8229H288.653V43.388H289.023C289.854 41.5715 291.147 40.1167 292.902 39.0237C294.673 37.9153 296.859 37.3611 299.46 37.3611C301.846 37.3611 303.94 37.8614 305.741 38.8621C307.558 39.8473 308.966 41.3021 309.967 43.2264C310.983 45.1507 311.491 47.5137 311.491 50.3155V73.2918H307.381V50.5695C307.381 47.66 306.565 45.3585 304.933 43.6651C303.316 41.9717 301.146 41.125 298.421 41.125C296.558 41.125 294.903 41.5253 293.456 42.3258C292.009 43.1263 290.862 44.2809 290.016 45.7896C289.184 47.2828 288.769 49.0609 288.769 51.1237Z" fill="white"/>
<path d="M253.929 73.846C251.666 73.846 249.665 73.4765 247.925 72.7376C246.201 71.9832 244.846 70.844 243.861 69.32C242.876 67.7959 242.383 65.8562 242.383 63.5009C242.383 61.5612 242.714 59.9063 243.376 58.5362C244.038 57.1507 244.962 56.0192 246.147 55.1417C247.333 54.2642 248.71 53.5946 250.281 53.1327C251.866 52.6709 253.575 52.3707 255.407 52.2321C257.393 52.0782 258.986 51.8935 260.187 51.6779C261.403 51.447 262.281 51.1314 262.819 50.7312C263.358 50.3155 263.628 49.769 263.628 49.0917V48.9993C263.628 48.0756 263.274 47.3675 262.565 46.8749C261.857 46.3822 260.949 46.1359 259.841 46.1359C258.624 46.1359 257.632 46.4053 256.862 46.9441C256.107 47.4676 255.653 48.2758 255.499 49.3688H243.769C243.923 47.2135 244.608 45.2277 245.824 43.4111C247.056 41.5792 248.849 40.1167 251.204 39.0237C253.56 37.9153 256.5 37.3611 260.025 37.3611C262.565 37.3611 264.844 37.6613 266.86 38.2617C268.877 38.8467 270.594 39.6703 272.01 40.7325C273.426 41.7793 274.504 43.0109 275.243 44.4272C275.997 45.828 276.374 47.3521 276.374 48.9993V73.2918H264.459V68.3039H264.182C263.474 69.6279 262.612 70.6978 261.596 71.5137C260.595 72.3296 259.448 72.9223 258.155 73.2918C256.877 73.6612 255.469 73.846 253.929 73.846ZM258.086 65.81C259.055 65.81 259.964 65.6099 260.81 65.2097C261.673 64.8094 262.373 64.2321 262.912 63.4778C263.451 62.7235 263.72 61.8075 263.72 60.7299V57.7741C263.381 57.9127 263.02 58.0435 262.635 58.1667C262.265 58.2899 261.865 58.4053 261.434 58.5131C261.018 58.6208 260.572 58.7209 260.095 58.8133C259.633 58.9056 259.148 58.9903 258.64 59.0673C257.655 59.2212 256.846 59.4752 256.215 59.8293C255.599 60.168 255.138 60.5913 254.83 61.0993C254.537 61.592 254.391 62.1462 254.391 62.7619C254.391 63.7472 254.737 64.5015 255.43 65.0249C256.123 65.5483 257.008 65.81 258.086 65.81Z" fill="white"/>
<path d="M224.816 57.7742V37.8229H237.563V73.2918H225.463V66.549H225.093C224.324 68.812 222.977 70.5823 221.052 71.8601C219.128 73.1224 216.842 73.7536 214.194 73.7536C211.716 73.7536 209.545 73.184 207.682 72.0448C205.835 70.9056 204.396 69.3354 203.364 67.3341C202.348 65.3328 201.832 63.0391 201.817 60.4528V37.8229H214.564V57.7742C214.579 59.5291 215.025 60.9069 215.903 61.9076C216.796 62.9082 218.043 63.4085 219.644 63.4085C220.706 63.4085 221.622 63.1853 222.392 62.7389C223.177 62.277 223.777 61.6305 224.193 60.7992C224.624 59.9525 224.832 58.9441 224.816 57.7742Z" fill="white"/>
<path d="M182.622 86.5926V67.4726H182.437C181.945 68.6734 181.237 69.751 180.313 70.7055C179.405 71.6445 178.296 72.3912 176.988 72.9454C175.695 73.4842 174.217 73.7536 172.554 73.7536C170.029 73.7536 167.705 73.0916 165.58 71.7677C163.471 70.4438 161.778 68.4348 160.5 65.7408C159.238 63.0467 158.607 59.6523 158.607 55.5573C158.607 51.2777 159.269 47.7985 160.593 45.1199C161.932 42.4413 163.656 40.4785 165.765 39.2315C167.89 37.9846 170.122 37.3611 172.462 37.3611C174.217 37.3611 175.756 37.669 177.08 38.2848C178.404 38.8851 179.512 39.6934 180.405 40.7094C181.298 41.71 181.976 42.8107 182.437 44.0115H182.714V37.8229H195.369V86.5926H182.622ZM177.265 63.9627C178.435 63.9627 179.435 63.624 180.267 62.9467C181.113 62.2539 181.76 61.2841 182.206 60.0371C182.668 58.7748 182.899 57.2815 182.899 55.5573C182.899 53.8024 182.668 52.3014 182.206 51.0545C181.76 49.7921 181.113 48.83 180.267 48.168C179.435 47.4906 178.435 47.152 177.265 47.152C176.095 47.152 175.094 47.4906 174.263 48.168C173.447 48.83 172.816 49.7921 172.369 51.0545C171.938 52.3014 171.723 53.8024 171.723 55.5573C171.723 57.3123 171.938 58.821 172.369 60.0833C172.816 61.3303 173.447 62.2924 174.263 62.9698C175.094 63.6317 176.095 63.9627 177.265 63.9627Z" fill="white"/>
<path d="M122.855 73.2918H109L124.61 26H142.16L157.77 73.2918H143.915L133.57 39.0237H133.2L122.855 73.2918ZM120.269 54.6337H146.316V64.2398H120.269V54.6337Z" fill="white"/>
<path d="M2 61.7315C2 47.6584 21.2518 36.25 45 36.25C68.7482 36.25 88 47.6584 88 61.7315C88 75.8045 68.7482 87.213 45 87.213C31.939 87.213 20.2381 83.7622 12.3519 78.3152" stroke="#39B6C6" stroke-width="4" stroke-linecap="round"/>
<path d="M68.8889 61.7315C68.8889 53.8154 58.1935 47.3981 45 47.3981C31.8065 47.3981 21.1111 53.8154 21.1111 61.7315C21.1111 69.6476 31.8065 76.0648 45 76.0648C51.5108 76.0648 57.4133 74.502 61.7222 71.9675" stroke="#39B6C6" stroke-width="4" stroke-linecap="round"/>
<path d="M61.0018 42.1325C61.0018 50.5216 53.5192 58.1481 44.2891 58.1481C35.0589 58.1481 26.4794 52.0469 27.5765 40.6072C28.6736 29.1674 35.9328 19.253 38.9715 4C57.2034 20.0156 61.0018 33.7433 61.0018 42.1325Z" fill="#152D41" stroke="#39B6C6" stroke-width="4"/>
<path d="M54.5152 38.4872C55.1598 44.9334 51.2921 50.735 44.8459 52.0242" stroke="#39B6C6" stroke-width="4" stroke-linecap="round"/>
</svg>
