<svg width="24" height="24" viewBox="0 0 24 24" fill="none" xmlns="http://www.w3.org/2000/svg">
<path fill-rule="evenodd" clip-rule="evenodd" d="M1.29289 21.2929C0.902367 21.6834 0.902367 22.3166 1.29289 22.7071C1.68342 23.0976 2.31658 23.0976 2.70711 22.7071L22.7071 2.70711C23.0976 2.31658 23.0976 1.68342 22.7071 1.29289C22.3166 0.90237 21.6834 0.90237 21.2929 1.29289L17.3149 5.27089C15.6229 4.42623 13.8492 4 11.9967 4C7.69744 4 3.82274 6.29581 0.407642 10.7899C-0.135868 11.505 -0.135884 12.4948 0.407613 13.2101C1.83 15.0819 3.33211 16.5723 4.91142 17.6744L1.29289 21.2929ZM7.8258 14.76L9.28945 13.2963C9.10115 12.904 8.99568 12.4643 8.99568 12C8.99568 10.3431 10.3388 9 11.9957 9C12.4588 9 12.8975 9.10495 13.2891 9.29237C13.2704 9.31102 13.2525 9.3304 13.2353 9.35047L14.7557 7.83012C13.9647 7.30555 13.0159 7 11.9957 7C9.23425 7 6.99568 9.23857 6.99568 12C6.99568 13.0202 7.30122 13.969 7.8258 14.76Z" fill="#39B6C6"/>
<path d="M11.0831 16.9169L8.52547 19.4745C9.64955 19.8242 10.8069 20 11.9967 20C16.2961 20 20.1708 17.7042 23.5859 13.2101C24.1294 12.495 24.1294 11.5051 23.5859 10.7899C22.606 9.5004 21.5882 8.39186 20.5334 7.46661L16.9126 11.0874C16.9672 11.3833 16.9957 11.6883 16.9957 12C16.9957 14.7614 14.7571 17 11.9957 17C11.684 17 11.379 16.9715 11.0831 16.9169Z" fill="#39B6C6"/>
</svg>
